HIERARCHY
ROOT Hips
{
  OFFSET 0 0.240689 0
  CHANNELS 6 Xposition Yposition Zposition Zrotation Xrotation Yrotation
  JOINT Bip01_Spine0
  {
    OFFSET 0 -24.7459 49.7988
    CHANNELS 6 Xposition Yposition Zposition Zrotation Xrotation Yrotation
    JOINT Bip01_Pelvis
    {
      OFFSET 0 0 0
      CHANNELS 6 Xposition Yposition Zposition Zrotation Xrotation Yrotation
      JOINT Bip01_Spine0_Tail
      {
        OFFSET -6.47486 -3.86022 0
        CHANNELS 6 Xposition Yposition Zposition Zrotation Xrotation Yrotation
        JOINT Bip01_Spine0_Tail1
        {
          OFFSET 10.3837 -0.00825882 0
          CHANNELS 6 Xposition Yposition Zposition Zrotation Xrotation Yrotation
          JOINT Bip01_Spine0_Tail2
          {
            OFFSET 10.3837 -0.00826263 0
            CHANNELS 6 Xposition Yposition Zposition Zrotation Xrotation Yrotation
            JOINT Bip01_Spine0_Tail3
            {
              OFFSET 10.3837 -0.00825882 0
              CHANNELS 6 Xposition Yposition Zposition Zrotation Xrotation Yrotation
              JOINT Bip01_Spine0_Tail4
              {
                OFFSET 10.3837 -0.00826263 0
                CHANNELS 6 Xposition Yposition Zposition Zrotation Xrotation Yrotation
                End Site
                {
                  OFFSET 0 0 0
                }
              }
            }
          }
        }
      }
      JOINT Bip01_R_Thigh
      {
        OFFSET 0 -1.52588e-005 -8.75617
        CHANNELS 6 Xposition Yposition Zposition Zrotation Xrotation Yrotation
        JOINT Bip01_R_Calf
        {
          OFFSET 19.7638 0 0
          CHANNELS 6 Xposition Yposition Zposition Zrotation Xrotation Yrotation
          JOINT Bip01_R_Foot
          {
            OFFSET 18.6534 0 0
            CHANNELS 6 Xposition Yposition Zposition Zrotation Xrotation Yrotation
            JOINT Bip01_R_Toe0
            {
              OFFSET 5.09145 13.9567 0
              CHANNELS 6 Xposition Yposition Zposition Zrotation Xrotation Yrotation
              JOINT Bip01_R_Toe01
              {
                OFFSET 4.28803 0 0
                CHANNELS 6 Xposition Yposition Zposition Zrotation Xrotation Yrotation
                JOINT Bip01_R_Toe02
                {
                  OFFSET 3.85801 0 0
                  CHANNELS 6 Xposition Yposition Zposition Zrotation Xrotation Yrotation
                  End Site
                  {
                    OFFSET 0 0 0
                  }
                }
              }
            }
          }
        }
      }
      JOINT Bip01_L_Thigh
      {
        OFFSET 0 1.52588e-005 8.75617
        CHANNELS 6 Xposition Yposition Zposition Zrotation Xrotation Yrotation
        JOINT Bip01_L_Calf
        {
          OFFSET 19.7638 0 0
          CHANNELS 6 Xposition Yposition Zposition Zrotation Xrotation Yrotation
          JOINT Bip01_L_Foot
          {
            OFFSET 18.6534 0 0
            CHANNELS 6 Xposition Yposition Zposition Zrotation Xrotation Yrotation
            JOINT Bip01_L_Toe0
            {
              OFFSET 5.09144 13.9567 0
              CHANNELS 6 Xposition Yposition Zposition Zrotation Xrotation Yrotation
              JOINT Bip01_L_Toe01
              {
                OFFSET 4.28802 0 0
                CHANNELS 6 Xposition Yposition Zposition Zrotation Xrotation Yrotation
                JOINT Bip01_L_Toe02
                {
                  OFFSET 3.85801 0 0
                  CHANNELS 6 Xposition Yposition Zposition Zrotation Xrotation Yrotation
                  End Site
                  {
                    OFFSET 0 0 0
                  }
                }
              }
            }
          }
        }
      }
      JOINT Bip01_Spine
      {
        OFFSET 9.14835 -0.00640869 -1.1e-005
        CHANNELS 6 Xposition Yposition Zposition Zrotation Xrotation Yrotation
        JOINT Bip01_Spine1
        {
          OFFSET 8.04366 -0.00638199 0
          CHANNELS 6 Xposition Yposition Zposition Zrotation Xrotation Yrotation
          JOINT Bip01_Spine2
          {
            OFFSET 8.04367 -0.00639343 0
            CHANNELS 6 Xposition Yposition Zposition Zrotation Xrotation Yrotation
            JOINT Bip01_Spine3
            {
              OFFSET 8.04304 -0.00831222 0
              CHANNELS 6 Xposition Yposition Zposition Zrotation Xrotation Yrotation
              JOINT Bip01_Neck
              {
                OFFSET 10.6685 1.06813 0
                CHANNELS 6 Xposition Yposition Zposition Zrotation Xrotation Yrotation
                JOINT Bip01_R_Clavicle
                {
                  OFFSET -3.21661 -4.89635 -9.04802
                  CHANNELS 6 Xposition Yposition Zposition Zrotation Xrotation Yrotation
                  JOINT Bip01_R_UpperArm
                  {
                    OFFSET 19.0492 0 0
                    CHANNELS 6 Xposition Yposition Zposition Zrotation Xrotation Yrotation
                    JOINT Bip01_R_Forearm
                    {
                      OFFSET 10.3706 0 0
                      CHANNELS 6 Xposition Yposition Zposition Zrotation Xrotation Yrotation
                      JOINT Bip01_R_Hand
                      {
                        OFFSET 22.8632 0 0
                        CHANNELS 6 Xposition Yposition Zposition Zrotation Xrotation Yrotation
                        JOINT Bip01_R_Finger0
                        {
                          OFFSET 6.48259 0.103651 0.504496
                          CHANNELS 6 Xposition Yposition Zposition Zrotation Xrotation Yrotation
                          JOINT Bip01_R_Finger01
                          {
                            OFFSET 3.66847 0 0
                            CHANNELS 6 Xposition Yposition Zposition Zrotation Xrotation Yrotation
                            End Site
                            {
                              OFFSET 0 0 0
                            }
                          }
                        }
                      }
                    }
                  }
                }
                JOINT Bip01_L_Clavicle
                {
                  OFFSET -3.21661 -4.89641 9.04797
                  CHANNELS 6 Xposition Yposition Zposition Zrotation Xrotation Yrotation
                  JOINT Bip01_L_UpperArm
                  {
                    OFFSET 19.0492 0 0
                    CHANNELS 6 Xposition Yposition Zposition Zrotation Xrotation Yrotation
                    JOINT Bip01_L_Forearm
                    {
                      OFFSET 10.3706 0 0
                      CHANNELS 6 Xposition Yposition Zposition Zrotation Xrotation Yrotation
                      JOINT Bip01_L_Hand
                      {
                        OFFSET 22.8631 0 0
                        CHANNELS 6 Xposition Yposition Zposition Zrotation Xrotation Yrotation
                        JOINT Bip01_L_Finger0
                        {
                          OFFSET 6.48257 0.103655 -0.504492
                          CHANNELS 6 Xposition Yposition Zposition Zrotation Xrotation Yrotation
                          JOINT Bip01_L_Finger01
                          {
                            OFFSET 3.66844 0 0
                            CHANNELS 6 Xposition Yposition Zposition Zrotation Xrotation Yrotation
                            End Site
                            {
                              OFFSET 0 0 0
                            }
                          }
                        }
                      }
                    }
                  }
                }
                JOINT Bip01_Neck1
                {
                  OFFSET 7.52459 -0.00656509 0
                  CHANNELS 6 Xposition Yposition Zposition Zrotation Xrotation Yrotation
                  JOINT Bip01_Neck2
                  {
                    OFFSET 8.4783 -0.00588226 0
                    CHANNELS 6 Xposition Yposition Zposition Zrotation Xrotation Yrotation
                    JOINT Bip01_Head
                    {
                      OFFSET 8.41606 0 0
                      CHANNELS 6 Xposition Yposition Zposition Zrotation Xrotation Yrotation
                      JOINT EyesBlue
                      {
                        OFFSET 0 0 0
                        CHANNELS 6 Xposition Yposition Zposition Zrotation Xrotation Yrotation
                        JOINT EyesBlue_2
                        {
                          OFFSET 0 -0.500007 0
                          CHANNELS 6 Xposition Yposition Zposition Zrotation Xrotation Yrotation
                          End Site
                          {
                            OFFSET 0 0 0
                          }
                        }
                      }
                      JOINT Bip01_Head2_Eyeleds
                      {
                        OFFSET 6.52751 7.61746 2.2e-005
                        CHANNELS 6 Xposition Yposition Zposition Zrotation Xrotation Yrotation
                        End Site
                        {
                          OFFSET 0 0 0
                        }
                      }
                      JOINT Bip01_Head_Muzzle
                      {
                        OFFSET 2.88628 13.9448 3.88994
                        CHANNELS 6 Xposition Yposition Zposition Zrotation Xrotation Yrotation
                        End Site
                        {
                          OFFSET 0 0 0
                        }
                      }
                      JOINT Bip01_Head1_Jaw
                      {
                        OFFSET 0.271065 1.32405 0
                        CHANNELS 6 Xposition Yposition Zposition Zrotation Xrotation Yrotation
                        JOINT _Bip01_Head11_TungeControler
                        {
                          OFFSET 4.61616 5.82872 0
                          CHANNELS 6 Xposition Yposition Zposition Zrotation Xrotation Yrotation
                          JOINT _Bip01_Ponytail3_tunge
                          {
                            OFFSET 5.17785 2.98805 0
                            CHANNELS 6 Xposition Yposition Zposition Zrotation Xrotation Yrotation
                            JOINT Bip01_Ponytail31
                            {
                              OFFSET 5.57569 0 0
                              CHANNELS 6 Xposition Yposition Zposition Zrotation Xrotation Yrotation
                              JOINT Bip01_Ponytail32
                              {
                                OFFSET 2.93165 0 0
                                CHANNELS 6 Xposition Yposition Zposition Zrotation Xrotation Yrotation
                                JOINT Bip01_Ponytail3Nub
                                {
                                  OFFSET 3.30155 0 0
                                  CHANNELS 6 Xposition Yposition Zposition Zrotation Xrotation Yrotation
                                  End Site
                                  {
                                    OFFSET 0 0 0
                                  }
                                }
                              }
                            }
                          }
                        }
                        JOINT Bip01_Head_JawNub
                        {
                          OFFSET 15.5776 -0.000389099 0
                          CHANNELS 6 Xposition Yposition Zposition Zrotation Xrotation Yrotation
                          End Site
                          {
                            OFFSET 0 0 0
                          }
                        }
                      }
                      JOINT Bip01_Ponytail2
                      {
                        OFFSET 9.40334 1.03973 -6.51764
                        CHANNELS 6 Xposition Yposition Zposition Zrotation Xrotation Yrotation
                        JOINT Bip01_Ponytail21
                        {
                          OFFSET 2.77018 -0.00640106 1.33514e-005
                          CHANNELS 6 Xposition Yposition Zposition Zrotation Xrotation Yrotation
                          End Site
                          {
                            OFFSET 0 0 0
                          }
                        }
                      }
                      JOINT Bip01_Ponytail1
                      {
                        OFFSET 9.40368 1.03969 6.51768
                        CHANNELS 6 Xposition Yposition Zposition Zrotation Xrotation Yrotation
                        JOINT Bip01_Ponytail11
                        {
                          OFFSET 2.77018 -0.00640487 0
                          CHANNELS 6 Xposition Yposition Zposition Zrotation Xrotation Yrotation
                          End Site
                          {
                            OFFSET 0 0 0
                          }
                        }
                      }
                    }
                  }
                }
              }
            }
          }
        }
      }
    }
  }
}
MOTION
Frames:	4
Frame Time:	0.0333333
0 0 0 -0 -90 -0 0.000814 -28.701 30.1603 90.0002 0.000164026 49.962 0 -1.0842e-019 1e-006 -90 1.77103e-005 -79.0001 -6.3603 -3.85824 -1.23556 174.09 -6.70023 -0.274721 10.3839 -0.008079 0.001112 4.63257 -6.88397 -4.13739 10.3829 -0.008113 -0.000817 -2.54624 6.40999 7.17096 10.3839 -0.00793 0.001581 4.8777 -10.8305 9.98322 10.3862 -0.007556 0.00069 21.4986 -4.34263 7.8915 1.1e-005 -1.1e-005 -8.75617 -101.563 2.78876 178.294 19.7638 -1e-006 -1e-006 -91.8284 3.2639e-005 -0.00209371 18.6534 -1e-006 0 -48.5835 1.29767 -3.69855 5.09143 13.9567 1.44104e-006 70.3996 -2.79319 -4.14806 4.288 -1e-006 -6.30607e-014 20.0011 1.28073e-005 4.69301e-006 0 0 0 -45 -9.4248e-006 9.62109e-006 -1.3e-005 1.5e-005 8.75617 -157.603 5.57156 -161.04 19.7638 7e-006 -3.55271e-015 -133.828 0.00119294 -0.00296841 18.6534 3e-006 2.66454e-014 71.4233 3.57758 -1.60617 5.09143 13.9567 -8.52476e-007 40.9837 0.392478 4.98582 4.288 -1e-006 1e-006 -25.9993 0.00151545 0.0024431 3.85799 8.88179e-014 -1e-006 -45 -9.3853e-006 -8.30552e-006 8.98013 -0.006332 1.7457 0.0467417 -0.00776291 -10.9989 8.04366 -0.006393 3e-006 -1.59028e-014 1.00179e-005 8.17601e-015 8.04443 -0.005985 -0.001933 7.97643 18.502 -0.0151589 8.04304 -0.008323 -5.48914e-010 -4.29873 2.52926e-005 2.70185e-005 10.6685 1.06812 7.06108e-006 -13.2811 -2.45392e-005 3.31178e-005 -2.46762 -5.31289 -9.04801 -158.384 -67.4171 125.5 19.0492 0 -1.42109e-014 86.3731 6.50375 -92.7684 10.3706 5.32907e-015 0 -40.4028 0.0010317 0.0022299 22.8631 -3e-006 1e-006 23.1594 3.95073 -18.6831 6.48255 0.103655 0.504496 46.6915 -12.6302 9.05575 3.66844 -1e-006 7.28306e-014 40.107 5.63806e-005 1.02648e-005 -2.46761 -5.31294 9.04798 -158.383 74.9179 -141.999 19.0492 3e-006 -3e-006 95.415 -57.3147 120.293 10.3706 -3e-006 3e-006 -102.512 -0.000396989 0.00359551 22.8631 3e-006 4.44089e-013 29.6582 -27.3291 14.8338 6.48256 0.103653 -0.504492 15.8776 15.437 -1.40529 3.66843 7e-006 3e-006 40.1071 9.19762e-007 -3.82449e-006 7.52508 -0.006662 0.000117 -9.00579 -0.399498 -1.95872 8.47604 -0.006574 2.79998e-005 8.50008 0.00102163 0.000880707 8.41604 -1e-006 -4.26326e-014 -43.6856 8.93242 -15.4346 1.7053e-013 3e-006 -3e-006 -23.1098 1.37701e-015 90 -2.39856e-006 -0.499998 3.84731e-008 4.88356e-007 90 90 6.5275 7.61746 2.31435e-005 -99.049 1.52588e-005 -180 2.8863 13.9448 3.88994 -23.1098 1.37701e-015 90 0.271057 1.32405 4.02495e-006 -71.7784 6.10352e-005 -180 4.61616 5.82873 -9.13091e-006 -120.289 9.79294e-006 -9.59921e-006 5.17783 2.98806 3.78169e-006 133.74 1.34932e-006 3.02439e-006 5.57567 -2.70006e-013 -4e-006 1.83152 -2.02726e-006 -4.93755e-008 2.93164 -7e-006 -3e-006 -17.65 1.50588e-005 1.08284e-006 3.30154 1.15108e-012 4e-006 -26.1943 -4.17758e-006 -5.14495e-006 15.5776 -0.000396 -6.99992e-006 8.82781e-032 -7.95139e-016 6.36111e-015 9.40333 1.03972 -6.51764 -19.0867 17.2453 20.3009 2.77018 -0.006404 1.30003e-005 2.43503 -1.786e-005 -1.64517e-005 9.40367 1.03969 6.51768 -19.0868 -17.2453 -20.3008 2.77017 -0.006404 -9.00066e-006 2.43503 1.00537e-005 -5.22299e-007 
0 0 0 90 -89.9258 90 0.000814 -28.701 30.4191 90.0002 0.000164026 49.962 0 -6.93889e-018 1e-006 -90 1.98056e-005 -83.9374 -6.43632 -3.85824 -0.682986 173.578 -4.70771 -3.55937 10.3839 -0.008079 0.001112 4.66699 -5.05107 -4.37551 10.3829 -0.008113 -0.000817 -2.05877 4.73172 3.88797 10.3839 -0.00793 0.001581 4.29365 -7.98506 5.92847 10.3862 -0.007556 0.00069 21.3036 -3.19731 4.44193 1.1e-005 -1.1e-005 -8.75617 -102.723 -1.98889 177.244 19.7638 -1e-006 -1e-006 -97.5056 0.000136472 -0.00209379 18.6534 -1e-006 3.55271e-015 -49.3783 1.6323 -3.5589 5.09143 13.9567 -2.74977e-006 70.204 -2.7784 -4.15733 4.288 -1e-006 -7.01661e-014 19.6971 1.2911e-005 4.68669e-006 0 0 0 -45 -1.01277e-005 9.71419e-006 -1.3e-005 1.5e-005 8.75617 -146.262 6.18933 -166.516 19.7638 7e-006 -7.10543e-015 -117.907 0.000707749 -0.00298348 18.6534 3e-006 2.30926e-014 47.2622 3.87918 -0.31452 5.09143 13.9567 -9.51196e-007 62.5058 2.19783 4.4935 4.288 -1e-006 1e-006 -10.8371 0.00209322 0.00195801 3.85799 4.9738e-014 -1e-006 -41.6632 -2.00931e-005 -2.54512e-006 9.08758 -0.006332 0.965172 0.0472092 -0.0037086 -6.06186 8.04366 -0.006393 3e-006 3.18056e-015 1.00179e-005 -5.08516e-014 8.04443 -0.005985 -0.001933 7.97613 14.2802 -0.0106503 8.04304 -0.008323 -4.55707e-010 -4.29873 2.52074e-005 2.69704e-005 10.6685 1.06812 7.05074e-006 -13.2811 -2.46956e-005 3.29904e-005 -2.46762 -5.31289 -9.04801 -158.428 -68.4481 131.276 19.0492 -7.10543e-015 -1.42109e-014 82.0875 -27.1342 -90.9191 10.3706 7.10543e-015 3.55271e-015 -92.3662 -4.30133e-005 0.00222719 22.8631 -3e-006 1e-006 33.7216 3.82573 -19.5567 6.48255 0.103655 0.504496 42.5894 -13.2339 8.13831 3.66844 -1e-006 5.86198e-014 40.107 2.57896e-005 9.922e-006 -2.46761 -5.31294 9.04798 -158.393 74.1485 -140.96 19.0492 3e-006 -3e-006 107.556 -69.1917 127.408 10.3706 -3e-006 3e-006 -77.8973 0.00037201 0.00359288 22.8631 3e-006 4.40536e-013 -3.93202 -18.6246 13.0108 6.48256 0.103653 -0.504492 10.8404 15.4991 -0.0610583 3.66843 7e-006 3e-006 40.1071 4.9725e-006 -9.53217e-006 7.52508 -0.006662 0.000117 -9.39778 -0.386141 -1.96106 8.47604 -0.006574 2.79998e-005 8.10857 0.00101567 0.000887731 8.41604 -1e-006 -2.66454e-014 -43.6657 10.7735 -11.5807 9.9476e-014 3e-006 -3e-006 -23.1098 1.37701e-015 90 -2.39996e-006 -0.499998 3.91761e-008 -2.65981e-007 90 90 6.5275 7.61746 2.30396e-005 -99.2303 1.52588e-005 -180 2.8863 13.9448 3.88994 -23.1098 1.37701e-015 90 0.271057 1.32405 4.00688e-006 -71.7784 6.10352e-005 -180 4.61616 5.82873 -8.96584e-006 -120.289 7.88521e-006 -8.19812e-006 5.17783 2.98806 3.8385e-006 133.74 1.04743e-006 2.23734e-006 5.57567 -1.98952e-013 -4e-006 1.83152 -1.72513e-006 -3.49523e-008 2.93164 -7e-006 -3e-006 -17.65 1.25858e-005 8.54475e-007 3.30154 9.52128e-013 4e-006 -26.1943 -3.93486e-006 -4.37016e-006 15.5776 -0.000396 -6.99993e-006 -1.59028e-015 3.97569e-016 -0 9.40333 1.03972 -6.51764 -19.0867 17.2453 20.3009 2.77018 -0.006404 1.30003e-005 2.43503 -1.78783e-005 -1.64374e-005 9.40367 1.03969 6.51768 -19.0868 -17.2453 -20.3008 2.77017 -0.006404 -9.00062e-006 2.43503 1.00478e-005 -5.03912e-007 
0 0 0 90 -89.7067 90 0.000814 -28.701 30.6897 90.0002 0.000164026 49.962 -1.42109e-014 -2.77556e-017 1e-006 -89.9998 -1.97727e-005 -89.0875 -6.4675 -3.85824 -0.102595 173.304 -2.63666 -7.08911 10.3839 -0.008079 0.001112 4.70612 -3.18933 -4.70258 10.3829 -0.008113 -0.000817 -1.76362 2.98414 0.501369 10.3839 -0.00793 0.001581 3.91119 -5.05583 1.77808 10.3862 -0.007556 0.00069 21.1766 -2.02336 0.859769 1.1e-005 -1.1e-005 -8.75617 -103.765 -6.94487 175.982 19.7638 -1e-006 -1e-006 -102.864 0.000235589 -0.00209378 18.6534 -1e-006 1.77636e-015 -49.7365 1.92219 -3.41013 5.09143 13.9567 -2.21551e-006 69.9364 -2.7585 -4.1701 4.288 -1e-006 -7.54952e-014 19.2806 1.3019e-005 4.71095e-006 0 0 0 -45 -1.10774e-005 9.80854e-006 -1.3e-005 1.5e-005 8.75617 -135.367 4.87109 -171.48 19.7638 7e-006 -3.55271e-015 -101.619 0.000280822 -0.00297227 18.6534 3e-006 7.10543e-015 22.2146 3.74201 0.979051 5.09143 13.9567 -1.00276e-006 91.7749 4.11415 2.84602 4.288 -1e-006 1e-006 9.68407 0.00266512 0.00109767 3.85799 -1.06582e-013 -1e-006 -35.1823 -2.54294e-005 -1.4205e-005 9.13167 -0.006332 0.145386 0.0473515 0.000543754 -0.912203 8.04366 -0.006393 3e-006 -9.54166e-015 1.00179e-005 -1.64494e-014 8.04443 -0.005985 -0.001933 7.97564 9.60505 -0.00683676 8.04304 -0.008323 -3.27383e-010 -4.29873 2.50944e-005 2.69042e-005 10.6685 1.06812 7.03643e-006 -13.2811 -2.48986e-005 3.2814e-005 -2.46762 -5.31289 -9.04801 -158.494 -69.5193 137.596 19.0492 -3.55271e-015 -7.10543e-015 81.1666 -36.1206 -90.6787 10.3706 1.06581e-014 -3.55271e-015 -120.794 -0.000577041 0.002244 22.8631 -3e-006 1e-006 46.1487 3.11114 -20.4745 6.48255 0.103655 0.504496 38.2955 -13.7938 7.13462 3.66844 -1e-006 6.39489e-014 40.107 1.62477e-005 9.55308e-006 -2.46761 -5.31294 9.04798 -158.403 73.3802 -139.857 19.0492 3e-006 -3e-006 113.094 -75.589 128.541 10.3706 -3e-006 3e-006 -60.5237 0.000957547 0.00358143 22.8631 3e-006 4.83169e-013 -25.1471 -10.856 15.5131 6.48256 0.103653 -0.504492 6.53352 15.4619 1.08901 3.66843 7e-006 3e-006 40.1071 3.9322e-006 -8.62756e-006 7.52508 -0.006662 0.000117 -9.81014 -0.37204 -1.96362 8.47604 -0.006574 2.79999e-005 7.69606 0.00100935 0.000895098 8.41604 -1e-006 -2.57572e-014 -43.8384 12.7531 -7.25575 5.68434e-014 3e-006 -3e-006 -23.1098 1.37701e-015 90 -2.40095e-006 -0.499998 3.99689e-008 4.48028e-007 90 90 6.5275 7.61746 2.29274e-005 -99.4115 -7.01671e-015 -180 2.8863 13.9448 3.88994 -23.1098 1.37701e-015 90 0.271057 1.32405 3.98738e-006 -71.7784 6.10352e-005 -180 4.61616 5.82873 -8.81547e-006 -120.289 5.99651e-006 -6.92176e-006 5.17783 2.98806 3.89812e-006 133.74 1.09747e-006 1.4114e-006 5.57567 -1.42109e-013 -4e-006 1.83152 -1.41095e-006 -8.09186e-009 2.93164 -7e-006 -3e-006 -17.65 9.84308e-006 5.04527e-007 3.30154 7.53175e-013 4e-006 -26.1943 -3.83381e-006 -3.64496e-006 15.5776 -0.000396 -6.99994e-006 1.59028e-015 1.19271e-015 -6.36111e-015 9.40333 1.03972 -6.51764 -19.0867 17.2453 20.3009 2.77018 -0.006404 1.30003e-005 2.43503 -1.7897e-005 -1.64257e-005 9.40367 1.03969 6.51768 -19.0868 -17.2453 -20.3008 2.77017 -0.006404 -9.00055e-006 2.43503 1.00408e-005 -4.79205e-007 
0 0 0 90 -89.3475 90 0.000814 -28.701 30.9647 90.0002 0.000164026 49.962 -7.10543e-015 5.55112e-017 1e-006 -89.9999 4.78702e-005 -93.8815 -6.45404 -3.85824 0.438037 173.305 -0.657469 -10.2067 10.3839 -0.008079 0.001112 4.75862 -1.39613 -4.91106 10.3829 -0.008113 -0.000817 -1.68216 1.28455 -2.63606 10.3839 -0.00793 0.001581 3.76072 -2.21262 -2.08082 10.3862 -0.007556 0.00069 21.1298 -0.886428 -2.4791 1.1e-005 -1.1e-005 -8.75617 -104.851 -11.5176 174.638 19.7638 -1e-006 -1e-006 -107.741 0.000328577 -0.0020931 18.6534 -1e-006 1.06581e-014 -49.1463 2.12274 -3.29191 5.09143 13.9567 -1.79208e-006 69.7567 -2.74509 -4.17862 4.288 -1e-006 -7.99361e-014 18.9987 1.31207e-005 4.71623e-006 0 0 0 -45 -1.2087e-005 9.87964e-006 -1.3e-005 1.5e-005 8.75617 -126.036 2.33954 -175.204 19.7638 7e-006 -5.32907e-015 -90.3297 8.17236e-006 -0.00296795 18.6534 3e-006 5.32907e-015 0.752668 3.18541 2.14971 5.09143 13.9567 -1.03141e-006 105.709 4.67719 1.77282 4.288 -1e-006 1e-006 20.3746 0.00282888 0.000582039 3.85799 -5.4623e-014 -1e-006 -31.9098 -2.63346e-005 -1.12838e-005 9.11266 -0.006332 -0.618247 0.0472222 0.00450474 3.8818 8.04366 -0.006393 3e-006 6.36111e-015 1.00179e-005 -0 8.04443 -0.005985 -0.001933 7.9751 4.7579 -0.00266984 8.04304 -0.008323 -1.75049e-010 -4.29873 2.49627e-005 2.68256e-005 10.6685 1.06812 7.01939e-006 -13.2811 -2.51322e-005 3.2604e-005 -2.46762 -5.31289 -9.04801 -158.44 -70.3777 141.888 19.0492 -1.06581e-014 0 81.2147 -30.6927 -89.4405 10.3706 7.10543e-015 -3.55271e-015 -132.703 -0.000842052 0.00224227 22.8631 -3e-006 1e-006 51.9311 3.89469 -21.038 6.48255 0.103655 0.504496 34.6609 -14.2084 6.25427 3.66844 -1e-006 4.61853e-014 40.107 1.20201e-005 9.17449e-006 -2.46761 -5.31294 9.04798 -158.4 72.624 -138.859 19.0492 3e-006 -3e-006 101.026 -77.1131 112.856 10.3706 -3e-006 3e-006 -48.8134 0.00139929 0.0035455 22.8631 3e-006 5.7554e-013 -31.4555 -3.33328 19.6899 6.48256 0.103653 -0.504492 1.48065 15.3121 2.43053 3.66843 7e-006 3e-006 40.1071 8.53466e-006 -6.66064e-006 7.52508 -0.006662 0.000117 -10.2344 -0.357505 -1.96622 8.47604 -0.006574 2.79999e-005 7.27193 0.00100278 0.000902626 8.41604 -1e-006 -1.44329e-014 -44.1971 14.7251 -2.69838 -1.42109e-014 3e-006 -3e-006 -23.1098 1.37701e-015 90 -2.40133e-006 -0.499998 4.0887e-008 9.21727e-008 90 90 6.5275 7.61746 2.28176e-005 -99.5928 7.01671e-015 -180 2.8863 13.9448 3.88994 -23.1098 1.37701e-015 90 0.271057 1.32405 3.9683e-006 -71.7784 6.10352e-005 -180 4.61616 5.82873 -8.70458e-006 -120.289 4.36464e-006 -5.98052e-006 5.17783 2.98806 3.95455e-006 133.74 1.55028e-006 6.29608e-007 5.57567 -1.42109e-013 -4e-006 1.83152 -1.12856e-006 3.02912e-008 2.93164 -7e-006 -3e-006 -17.65 7.1494e-006 5.4963e-008 3.30154 5.96856e-013 4e-006 -26.1943 -3.9573e-006 -3.07961e-006 15.5776 -0.000396 -6.99995e-006 -1.59028e-015 0 -9.54166e-015 9.40333 1.03972 -6.51764 -19.0867 17.2453 20.3009 2.77018 -0.006404 1.30004e-005 2.43503 -1.79142e-005 -1.64186e-005 9.40367 1.03969 6.51768 -19.0868 -17.2453 -20.3008 2.77017 -0.006404 -9.00047e-006 2.43503 1.00326e-005 -4.49174e-007 
